PathFileType	4	(X/Y/Z)	C:/Users/opensim2020/Desktop/walking_exp_matlab/subject06_walking22_straight_04.trc																																																																																																																																		
DataRate	CameraRate	NumFrames	NumMarkers	Units	OrigDataRate	OrigDataStartFrame	OrigNumFrames																																																																																																																														
100	100	5	44	mm	100	2188	102																																																																																																																														
Frame#	Time	LFHD			RFHD			LBHD			RBHD			C7			T10			CLAV			STRN			RBAK			LSHO			LUPA			LELB			LFRM			LWRA			LWRB			LFIN			RSHO			RUPA			RELB			RFRM			RWRA			RWRB			RFIN			LASI			RASI			LPSI			RPSI			LTHI			LKNE			LTIB			LANK			LHEE			LTOE			RTHI			RKNE			RTIB			RANK			RHEE			RTOE			*39			*40			*41			*42			*43		
		X1	Y1	Z1	X2	Y2	Z2	X3	Y3	Z3	X4	Y4	Z4	X5	Y5	Z5	X6	Y6	Z6	X7	Y7	Z7	X8	Y8	Z8	X9	Y9	Z9	X10	Y10	Z10	X11	Y11	Z11	X12	Y12	Z12	X13	Y13	Z13	X14	Y14	Z14	X15	Y15	Z15	X16	Y16	Z16	X17	Y17	Z17	X18	Y18	Z18	X19	Y19	Z19	X20	Y20	Z20	X21	Y21	Z21	X22	Y22	Z22	X23	Y23	Z23	X24	Y24	Z24	X25	Y25	Z25	X26	Y26	Z26	X27	Y27	Z27	X28	Y28	Z28	X29	Y29	Z29	X30	Y30	Z30	X31	Y31	Z31	X32	Y32	Z32	X33	Y33	Z33	X34	Y34	Z34	X35	Y35	Z35	X36	Y36	Z36	X37	Y37	Z37	X38	Y38	Z38	X39	Y39	Z39	X40	Y40	Z40	X41	Y41	Z41	X42	Y42	Z42	X43	Y43	Z43	X44	Y44	Z44
																																																																																																																																					
1	0	-737.51056	1627.27588	891.70038	-723.33899	1626.99866	1023.36951	-873.40881	1584.50354	911.06165	-857.38916	1588.98474	1039.44067	-877.71649	1428.0365	971.50171	-924.50287	1099.88062	980.06226	-769.49457	1347.20325	971.24371	-735.84863	1172.16699	970.75201	-956.62543	1263.13245	1056.80908	-827.71942	1376.87061	809.7489	-870.56274	1180.12439	737.11304	-902.23157	1072.49646	727.69318	-915.48615	923.29547	703.21362	-885.99036	796.11755	740.85168	-946.54449	808.20093	704.50409	-927.63824	718.86017	701.0675	-812.77136	1384.45667	1131.67432	-847.04346	1198.39026	1239.40503	-825.44537	1084.96863	1267.81299	-750.35028	997.29968	1282.15039	-624.23169	926.87427	1234.97681	-660.88489	894.46289	1280.83276	-585.10669	859.25031	1273.78271	-740.11688	940.9682	883.50574	-760.15179	943.12079	1101.68982	-898.47528	962.59711	892.03809	-909.06335	970.50757	1060.4458	-722.76123	633.27216	814.09259	-649.7879	488.56381	849.28497	-625.04401	236.51271	863.1767	-587.09766	69.31476	906.5993	-621.75934	46.58054	953.30133	-442.96317	73.348	912.7124	-863.15411	614.61444	1145.68555	-885.93127	489.52109	1124.93518	-1011.84454	249.23056	1121.3175	-1085.70215	77.92463	1076.2677	-1130.68347	59.26534	1031.37036	-941.90686	30.15759	1086.10364	-827.06342	1678.33447	957.92377	NaN	NaN	NaN	NaN	NaN	NaN	NaN	NaN	NaN	NaN	NaN	NaN
2	0.01	-723.15955	1624.4397	891.62	-708.82281	1624.29834	1023.26813	-859.09198	1581.82593	911.07697	-842.92737	1586.29626	1039.53711	-863.52948	1425.30811	971.62805	-910.22217	1096.99255	980.27435	-755.26813	1344.45227	971.46692	-721.74524	1169.36145	971.31207	-942.61761	1260.33911	1057.20239	-813.52716	1373.78125	809.82843	-858.98474	1177.82251	737.49585	-892.5437	1070.7085	728.00928	-908.8855	921.95978	703.20844	-881.10278	794.15472	740.84979	-941.5141	807.1908	704.92639	-924.1795	717.51685	701.4502	-798.5495	1381.71643	1131.90698	-831.21069	1195.68457	1240.25134	-808.34119	1082.66711	1268.67578	-731.81854	996.42987	1282.20508	-605.03577	928.25482	1233.24451	-640.64612	895.50488	1280.13196	-564.32501	861.40234	1271.77051	-725.03882	938.33728	884.04041	-746.59167	940.19116	1102.55432	-884.0481	959.89825	891.98376	-895.38672	967.97424	1060.41382	-708.98706	629.98578	813.65686	-634.71454	486.42996	849.12128	-599.67224	235.76929	862.06104	-553.74158	70.11865	905.17761	-587.68329	45.61591	951.58099	-409.6051	80.05663	912.62683	-853.02679	613.36218	1146.6438	-877.64746	488.40872	1126.09668	-1007.8772	250.24155	1121.53845	-1084.79663	80.31408	1076.10962	-1129.92175	62.74398	1031.00635	-942.09399	30.13413	1086.02307	-812.6062	1675.58167	957.8548	NaN	NaN	NaN	NaN	NaN	NaN	NaN	NaN	NaN	NaN	NaN	NaN
3	0.02	-708.60736	1621.92908	891.41125	-694.29279	1621.93176	1023.15009	-844.5733	1579.34155	911.05603	-828.05658	1583.88721	1039.21521	-849.17047	1422.88489	971.64703	-895.76392	1094.33813	980.30707	-740.87604	1341.91064	971.45941	-707.43262	1166.77124	971.71991	-928.55334	1257.90247	1057.4408	-799.22119	1370.91455	809.73273	-847.00464	1175.61255	737.80823	-882.62665	1069.07544	728.53394	-901.15137	920.53363	703.80194	-874.39868	792.32593	740.06152	-935.90948	806.32477	705.45313	-920.04541	716.44061	701.86584	-784.21326	1379.16602	1132.06763	-815.34485	1193.10181	1240.91797	-791.41248	1080.50244	1269.44031	-713.60651	995.52789	1282.14343	-586.36639	929.43262	1231.74768	-620.96466	896.1012	1278.9646	-544.08252	863.50293	1269.93518	-710.3009	935.8222	884.91882	-733.08112	937.80121	1103.31689	-869.09979	957.23706	891.55115	-881.7356	965.6582	1060.08459	-694.83905	626.92609	813.03772	-619.75055	484.57925	848.9549	-575.63531	235.47121	860.93756	-522.5105	71.53666	903.69958	-555.51086	45.47002	949.94897	-378.55212	86.84987	911.8562	-842.60156	612.61139	1147.64453	-868.87091	487.72327	1127.39807	-1003.49805	251.72624	1121.74756	-1083.72571	83.415	1076.04321	-1128.91919	66.99343	1030.68555	-942.2099	30.12223	1085.979	-798.0752	1673.1427	957.7243	NaN	NaN	NaN	NaN	NaN	NaN	NaN	NaN	NaN	NaN	NaN	NaN
4	0.03	-694.00397	1619.70886	891.07019	-679.48792	1619.80969	1022.78546	-829.96075	1577.20532	910.92395	-813.3114	1581.8429	1039.0553	-834.71594	1420.81812	971.57666	-881.10718	1092.07971	980.1402	-726.46112	1339.75415	971.36945	-692.92773	1164.5553	972.01288	-914.25391	1255.82764	1057.4165	-784.80872	1368.3811	809.49725	-834.64508	1173.61108	738.0661	-871.8736	1067.55652	728.87616	-892.92725	919.40332	704.13818	-867.72455	790.80701	739.93384	-929.48303	805.75848	706.06781	-914.9931	715.59369	702.23352	-769.68628	1376.94128	1132.10803	-799.34448	1190.71655	1241.25403	-774.5271	1078.53882	1269.99194	-695.68225	994.68042	1281.93494	-568.32556	930.33453	1230.23755	-601.77472	896.54065	1277.9657	-524.63086	865.07343	1267.90857	-695.14331	933.51312	885.50336	-719.21576	935.82855	1104.01697	-854.1546	954.82471	891.11896	-867.83441	963.5307	1059.55396	-680.14807	624.48218	812.16168	-604.72333	482.72415	848.47577	-553.05414	235.31958	859.8197	-493.79404	73.19174	902.41943	-525.88409	46.03824	948.6803	-350.10687	93.14161	910.44189	-831.64111	612.09131	1148.56409	-859.07074	487.21786	1128.61414	-998.62317	253.62764	1122.02539	-1082.49915	87.23123	1076.10889	-1127.70667	72.11765	1030.521	-942.3075	30.09926	1085.95154	-783.36029	1670.99634	957.43854	NaN	NaN	NaN	NaN	NaN	NaN	NaN	NaN	NaN	NaN	NaN	NaN
5	0.04	-679.20776	1617.9342	890.65466	-664.59424	1618.09314	1022.34363	-815.1944	1575.44421	910.60846	-798.46057	1580.19727	1038.75916	-820.04657	1419.16541	971.23895	-866.26489	1090.21936	979.76324	-711.93866	1337.95264	971.20929	-678.18262	1162.7428	972.15765	-899.76801	1254.24524	1057.23267	-770.24841	1366.28857	809.07983	-821.81787	1171.90686	738.22369	-860.36066	1066.29565	729.22876	-883.91333	918.57532	704.40723	-860.40668	789.68384	740.03845	-922.22076	805.39886	706.7395	-909.14465	715.15283	702.66876	-754.91949	1375.12048	1131.96143	-783.37469	1188.98376	1241.48352	-757.84973	1076.94189	1270.28003	-678.19617	993.90607	1281.47559	-550.84436	930.97546	1228.73254	-583.52069	896.89459	1276.83069	-505.96939	866.49915	1266.19958	-679.66309	931.62396	886.02808	-705.14001	934.34229	1104.6001	-838.84692	952.75562	890.44958	-853.64056	961.73914	1058.74329	-664.78571	622.73615	811.15277	-589.84723	481.03592	847.90729	-532.08051	235.15744	858.67981	-468.04938	74.7412	901.33435	-499.05264	46.83366	947.87787	-324.44287	98.34494	908.57654	-819.94965	611.6413	1149.46448	-848.46942	486.7998	1129.6842	-993.09204	255.89517	1122.2981	-1080.27258	91.18672	1076.01794	-1126.08191	77.91394	1030.38416	-942.4198	30.13829	1085.98328	-768.51343	1669.25684	957.04138	NaN	NaN	NaN	NaN	NaN	NaN	NaN	NaN	NaN	NaN	NaN	NaN
